<?xml version="1.0" encoding="utf-8"?>
<!-- Generator: Adobe Illustrator 18.0.0, SVG Export Plug-In . SVG Version: 6.00 Build 0)  -->
<!DOCTYPE svg PUBLIC "-//W3C//DTD SVG 1.1//EN" "http://www.w3.org/Graphics/SVG/1.1/DTD/svg11.dtd">
<svg version="1.1" id="Layer_1" xmlns="http://www.w3.org/2000/svg" xmlns:xlink="http://www.w3.org/1999/xlink" x="0px" y="0px"
	 viewBox="0 0 229 101.5" enable-background="new 0 0 229 101.5" xml:space="preserve">
<g>
	<linearGradient id="SVGID_1_" gradientUnits="userSpaceOnUse" x1="44.3738" y1="2.6477" x2="43.0769" y2="66.8492">
		<stop  offset="0" style="stop-color:#2198D2"/>
		<stop  offset="1" style="stop-color:#0A5BB9"/>
	</linearGradient>
	<polygon fill="url(#SVGID_1_)" points="61.2,67.4 64.2,63.7 46.3,49 51,43.4 46,35.1 37.3,32.1 25.6,46.3 25,45.8 22.4,49 
		37.2,61.2 39.8,58 39.3,57.6 43.3,52.6 	"/>
	
		<linearGradient id="SVGID_2_" gradientUnits="userSpaceOnUse" x1="125.1677" y1="99.2532" x2="123.8707" y2="163.4587" gradientTransform="matrix(0.9715 0.237 -0.237 0.9715 -56.0841 -121.6105)">
		<stop  offset="0" style="stop-color:#2198D2"/>
		<stop  offset="1" style="stop-color:#0A5BB9"/>
	</linearGradient>
	<path fill="url(#SVGID_2_)" d="M37.4,68.3c0,2.1-5.5,3.7-12.3,3.8c-6.8,0-12.4-1.6-12.4-3.7c0-2.1,5.5-3.7,12.3-3.8
		C31.9,64.6,37.4,66.2,37.4,68.3z"/>
</g>
<linearGradient id="SVGID_3_" gradientUnits="userSpaceOnUse" x1="4" y1="20.3459" x2="75.8116" y2="20.3459">
	<stop  offset="0" style="stop-color:#0A5BB9"/>
	<stop  offset="0.5116" style="stop-color:#2198D2"/>
	<stop  offset="1" style="stop-color:#0A5BB9"/>
</linearGradient>
<polyline fill="url(#SVGID_3_)" points="23.9,11.3 4,21.4 4,37.3 40,19.3 76,37.3 76,21.4 55.6,11.3 39.7,3.4 39.7,3.4 "/>
<g>
	<path fill="#4D4D4D" d="M100.4,68.8h-5c-1.3-4-2.3-6.4-3-7.3c-0.7-0.9-1.8-1.4-3.3-1.4c-0.6,0-1.3,0-1.9,0c0,2.9,0.1,5.8,0.2,8.7
		h-4.7c0.1-3.4,0.2-7.2,0.2-11.4c0-4.1-0.1-7.5-0.2-10.4h2.9c0.3,0,1,0,2.1-0.1c1.1,0,2.1-0.1,3-0.1c5.1,0,7.7,1.8,7.7,5.3
		c0,2.8-1.5,4.7-4.4,5.8v0.3c1.1,0.3,2.1,1.2,3,2.6C97.9,62.3,99,64.9,100.4,68.8z M94.2,53.4c0-2.2-1.4-3.3-4.3-3.3
		c-1,0-2,0.1-2.8,0.2c0.1,1.7,0.2,4,0.2,6.8c0.6,0,1.1,0,1.6,0C92.4,57.1,94.2,55.8,94.2,53.4z"/>
	<path fill="#4D4D4D" d="M107.4,68.8h-4.5c0.2-2.3,0.2-5,0.2-8c0-3-0.2-5.6-0.6-7.8l4.8-0.5c-0.1,2.2-0.2,4.9-0.2,8.3
		C107.2,63.7,107.3,66.3,107.4,68.8z M108.2,47.8c0,0.8-0.3,1.4-0.8,2c-0.5,0.6-1.2,0.9-2.2,0.9c-0.8,0-1.4-0.2-1.8-0.7
		c-0.4-0.5-0.7-1.1-0.7-1.8c0-0.8,0.3-1.4,0.8-2c0.5-0.6,1.2-0.8,2.2-0.8c0.8,0,1.4,0.2,1.8,0.7C108,46.5,108.2,47.1,108.2,47.8z"/>
	<path fill="#4D4D4D" d="M127.9,50.6l-0.4,3.1c-1.7,0-2.8,0.3-3.3,0.8v0.2c0.7,0.8,1,1.8,1,2.8c0,1.6-0.6,3-1.8,4.1
		c-1.2,1.1-2.9,1.7-5.3,1.7c-1.1,0-2.1-0.1-2.8-0.3c-0.6,0.3-0.9,0.6-0.9,1.1c0,0.7,0.4,1.2,1.1,1.4c0.7,0.3,2.4,0.4,4.9,0.4
		c4.5,0,6.7,1.5,6.7,4.6c0,2.1-0.9,3.8-2.8,5.1c-1.9,1.3-4.1,1.9-6.8,1.9c-5.2,0-7.8-1.6-7.8-4.9c0-1,0.3-1.9,0.9-2.6
		c0.6-0.7,1.3-1.1,2-1.3v-0.3c-0.9-0.6-1.4-1.5-1.4-2.7c0-1.2,0.6-2.3,1.9-3.1v-0.2c-1.8-0.9-2.7-2.3-2.7-4.2c0-1.6,0.6-3,1.9-4.1
		c1.2-1.1,3.2-1.7,5.8-1.7c1.8,0,3.2,0.3,4.3,1h0.2c0.3-2.1,1.4-3.2,3.2-3.2C126.7,50.2,127.4,50.3,127.9,50.6z M123.1,71.7
		c0-0.8-0.3-1.4-0.9-1.8c-0.6-0.4-1.7-0.6-3.3-0.6c-1.3,0-2.5-0.1-3.8-0.2c-1,0.6-1.5,1.4-1.5,2.6c0,2.1,1.4,3.2,4.3,3.2
		c1.6,0,2.9-0.3,3.8-0.9C122.7,73.5,123.1,72.7,123.1,71.7z M121.2,57.9c0-1-0.3-1.8-1-2.3c-0.6-0.5-1.4-0.8-2.2-0.8
		c-0.8,0-1.6,0.3-2.2,0.8c-0.6,0.5-0.9,1.3-0.9,2.2c0,1,0.3,1.7,1,2.3c0.6,0.5,1.4,0.8,2.3,0.8c0.8,0,1.5-0.2,2.2-0.7
		C120.9,59.6,121.2,58.9,121.2,57.9z"/>
	<path fill="#4D4D4D" d="M145.2,68.8h-4.5c0.2-2.8,0.4-5.6,0.4-8.2c0-2-0.3-3.3-0.8-3.9c-0.5-0.6-1.3-0.9-2.5-0.9
		c-1.2,0-2.4,0.4-3.6,1.2c0,4.7,0.1,8.7,0.2,11.9H130c0.1-3.5,0.2-7.6,0.2-12.4c0-4.5-0.2-8.2-0.5-11.1l4.7-0.3
		c-0.2,3.6-0.3,6.7-0.3,9.4h0.2c1.5-1.4,3.2-2,5.1-2c1.8,0,3.2,0.4,4.2,1.2c1,0.8,1.5,2.2,1.5,4.3c0,0.2,0,0.6,0,1.3
		c0,0.7,0,1.1,0,1.3C145.1,62.3,145.2,65.1,145.2,68.8z"/>
	<path fill="#4D4D4D" d="M158.9,65.6l-0.3,3c-0.8,0.3-1.8,0.5-2.9,0.5c-1.8,0-3.2-0.5-4.1-1.5c-0.9-1-1.4-2.9-1.4-5.7
		c0-1.7,0-3.6,0-5.7c-0.6,0-1.3,0-2.3,0.1L148,53c0.9,0.1,1.7,0.1,2.4,0.1c0-0.6,0.1-2.1,0.1-4.7l4-0.5c-0.2,2.2-0.3,3.9-0.3,5.2
		c0.9,0,2.3,0,4.2-0.1l-0.1,3.3c-1.7-0.1-3.1-0.1-4.1-0.1c0,1.5,0,3,0,4.7c0,2,0.2,3.3,0.6,4c0.4,0.7,1.1,1,2.1,1
		C157.5,65.9,158.2,65.8,158.9,65.6z"/>
	<path fill="#4D4D4D" d="M177.5,64.8l-0.3,3.9c-1.6,0.4-3.1,0.6-4.7,0.6c-3.8,0-6.7-1.1-8.7-3.2c-2-2.1-3-4.7-3-7.7
		c0-3.1,1.1-5.9,3.2-8.2c2.1-2.3,5-3.5,8.7-3.5c1.4,0,2.7,0.2,3.9,0.5L176,51c-1.3-0.4-2.6-0.6-3.8-0.6c-2.3,0-4,0.7-5.1,2.2
		c-1.1,1.4-1.7,3.2-1.7,5.2c0,2.1,0.7,3.9,2,5.5c1.3,1.5,3.2,2.3,5.5,2.3C174.4,65.5,175.9,65.3,177.5,64.8z"/>
	<path fill="#4D4D4D" d="M196.5,60.5c0,2.8-0.9,5-2.6,6.6c-1.7,1.6-3.8,2.4-6.1,2.4c-2.2,0-4.1-0.7-5.7-2.2
		c-1.6-1.4-2.4-3.5-2.4-6.1c0-2.8,0.9-5,2.6-6.6c1.7-1.6,3.8-2.4,6.1-2.4c2.2,0,4.1,0.7,5.7,2.2C195.7,55.8,196.5,57.8,196.5,60.5z
		 M192.1,61c0-1.6-0.4-3-1.1-4.1c-0.8-1.1-1.7-1.6-3-1.6c-1.2,0-2.1,0.5-2.9,1.5c-0.7,1-1.1,2.3-1.1,3.9c0,1.6,0.4,3,1.1,4.1
		c0.8,1.1,1.7,1.6,3,1.6c1.2,0,2.1-0.5,2.9-1.5C191.7,63.8,192.1,62.5,192.1,61z"/>
	<path fill="#4D4D4D" d="M210.9,64.2c0,3.3-2.5,5-7.4,5c-1.8,0-3.4-0.2-4.7-0.6l0.6-3.3c1.4,0.5,2.8,0.8,4.2,0.8
		c1.3,0,2.3-0.1,2.8-0.3c0.5-0.2,0.8-0.6,0.8-1.1c0-0.8-0.9-1.6-2.8-2.3c-1.6-0.6-2.8-1.3-3.6-1.9c-1-0.9-1.5-1.9-1.5-3.2
		c0-1.5,0.6-2.7,1.7-3.6c1.1-0.9,2.7-1.4,4.8-1.4c2,0,3.5,0.2,4.7,0.5l-0.6,3.3c-1.3-0.5-2.6-0.7-4.1-0.7c-1.8,0-2.7,0.5-2.7,1.4
		c0,0.5,0.2,0.8,0.6,1.1c0.4,0.3,1.2,0.6,2.3,1.1c1.6,0.6,2.8,1.2,3.5,1.8C210.3,61.7,210.9,62.8,210.9,64.2z"/>
	<path fill="#4D4D4D" d="M223.8,65.6l-0.3,3c-0.8,0.3-1.8,0.5-2.9,0.5c-1.8,0-3.2-0.5-4.1-1.5c-0.9-1-1.4-2.9-1.4-5.7
		c0-1.7,0-3.6,0-5.7c-0.6,0-1.3,0-2.3,0.1l0.1-3.3c0.9,0.1,1.7,0.1,2.4,0.1c0-0.6,0.1-2.1,0.1-4.7l4-0.5c-0.2,2.2-0.3,3.9-0.3,5.2
		c0.9,0,2.3,0,4.2-0.1l-0.1,3.3c-1.7-0.1-3.1-0.1-4.1-0.1c0,1.5,0,3,0,4.7c0,2,0.2,3.3,0.6,4c0.4,0.7,1.1,1,2.1,1
		C222.4,65.9,223.1,65.8,223.8,65.6z"/>
</g>
<g>
	<path fill="#4D4D4D" d="M5.4,92.4L4.6,95H3.5l2.8-8.3h1.3l2.8,8.3H9.3l-0.9-2.6H5.4z M8.2,91.5l-0.8-2.4c-0.2-0.5-0.3-1-0.4-1.5h0
		c-0.1,0.5-0.3,1-0.4,1.5l-0.8,2.4H8.2z"/>
	<path fill="#4D4D4D" d="M16.4,93.3c0,0.6,0,1.2,0,1.6h-1l-0.1-1h0c-0.3,0.5-0.9,1.1-2,1.1c-0.9,0-2.1-0.5-2.1-2.6V89h1.1v3.3
		c0,1.1,0.3,1.9,1.3,1.9c0.7,0,1.2-0.5,1.4-1c0.1-0.2,0.1-0.4,0.1-0.6V89h1.1V93.3z"/>
	<path fill="#4D4D4D" d="M18.1,93.9c0.3,0.2,0.9,0.4,1.4,0.4c0.8,0,1.2-0.4,1.2-0.9c0-0.5-0.3-0.8-1.1-1.1c-1.1-0.4-1.6-1-1.6-1.7
		c0-1,0.8-1.7,2.1-1.7c0.6,0,1.1,0.2,1.5,0.4L21.3,90c-0.2-0.1-0.7-0.3-1.2-0.3c-0.6,0-1,0.4-1,0.8c0,0.5,0.4,0.7,1.1,1
		c1,0.4,1.6,0.9,1.6,1.8c0,1-0.8,1.8-2.2,1.8c-0.7,0-1.3-0.2-1.7-0.4L18.1,93.9z"/>
	<path fill="#4D4D4D" d="M24.4,87.3V89H26v0.8h-1.6V93c0,0.7,0.2,1.2,0.8,1.2c0.3,0,0.5,0,0.6-0.1l0,0.8c-0.2,0.1-0.5,0.1-1,0.1
		c-0.5,0-0.9-0.2-1.2-0.5c-0.3-0.3-0.4-0.8-0.4-1.6v-3.3h-0.9V89h0.9v-1.4L24.4,87.3z"/>
	<path fill="#4D4D4D" d="M27.2,90.9c0-0.7,0-1.3,0-1.9h0.9l0,1.2h0c0.3-0.8,0.9-1.3,1.7-1.3c0.1,0,0.2,0,0.3,0v1c-0.1,0-0.2,0-0.4,0
		c-0.8,0-1.3,0.6-1.5,1.4c0,0.1,0,0.3,0,0.5V95h-1.1V90.9z"/>
	<path fill="#4D4D4D" d="M34.5,95l-0.1-0.8h0c-0.3,0.5-1,0.9-1.8,0.9c-1.2,0-1.8-0.9-1.8-1.7c0-1.4,1.3-2.2,3.6-2.2V91
		c0-0.5-0.1-1.4-1.4-1.4c-0.6,0-1.1,0.2-1.6,0.4l-0.2-0.7c0.5-0.3,1.2-0.5,2-0.5c1.8,0,2.3,1.2,2.3,2.4v2.2c0,0.5,0,1,0.1,1.4H34.5z
		 M34.3,91.9c-1.2,0-2.5,0.2-2.5,1.3c0,0.7,0.5,1,1,1c0.8,0,1.3-0.5,1.4-1c0-0.1,0.1-0.2,0.1-0.3V91.9z"/>
	<path fill="#4D4D4D" d="M37.1,86.2h1.1V95h-1.1V86.2z"/>
	<path fill="#4D4D4D" d="M41.2,87.3c0,0.4-0.3,0.7-0.7,0.7c-0.4,0-0.7-0.3-0.7-0.7c0-0.4,0.3-0.7,0.7-0.7
		C41,86.7,41.2,86.9,41.2,87.3z M40,95v-6h1.1v6H40z"/>
	<path fill="#4D4D4D" d="M46.2,95l-0.1-0.8h0c-0.3,0.5-1,0.9-1.8,0.9c-1.2,0-1.8-0.9-1.8-1.7c0-1.4,1.3-2.2,3.6-2.2V91
		c0-0.5-0.1-1.4-1.4-1.4c-0.6,0-1.1,0.2-1.6,0.4l-0.2-0.7c0.5-0.3,1.2-0.5,2-0.5c1.8,0,2.3,1.2,2.3,2.4v2.2c0,0.5,0,1,0.1,1.4H46.2z
		 M46,91.9c-1.2,0-2.5,0.2-2.5,1.3c0,0.7,0.5,1,1,1c0.8,0,1.3-0.5,1.4-1c0-0.1,0.1-0.2,0.1-0.3V91.9z"/>
	<path fill="#4D4D4D" d="M49.8,86.5c-0.3,1-0.8,2.4-1.2,2.9L48,89.5c0.3-0.7,0.6-2,0.7-2.9L49.8,86.5z"/>
	<path fill="#4D4D4D" d="M50,93.9c0.3,0.2,0.9,0.4,1.4,0.4c0.8,0,1.2-0.4,1.2-0.9c0-0.5-0.3-0.8-1.1-1.1c-1.1-0.4-1.6-1-1.6-1.7
		c0-1,0.8-1.7,2.1-1.7c0.6,0,1.1,0.2,1.5,0.4L53.1,90c-0.2-0.1-0.7-0.3-1.2-0.3c-0.6,0-1,0.4-1,0.8c0,0.5,0.4,0.7,1.1,1
		c1,0.4,1.6,0.9,1.6,1.8c0,1-0.8,1.8-2.2,1.8c-0.7,0-1.3-0.2-1.7-0.4L50,93.9z"/>
	<path fill="#4D4D4D" d="M64.7,90.7c0,2.9-1.7,4.4-3.9,4.4c-2.2,0-3.7-1.7-3.7-4.2c0-2.6,1.6-4.4,3.9-4.4
		C63.3,86.5,64.7,88.3,64.7,90.7z M58.3,90.9c0,1.8,1,3.4,2.6,3.4c1.7,0,2.7-1.6,2.7-3.4c0-1.7-0.9-3.4-2.6-3.4
		C59.2,87.4,58.3,89,58.3,90.9z"/>
	<path fill="#4D4D4D" d="M66.1,90.6c0-0.6,0-1.1,0-1.6h1l0.1,1h0c0.3-0.6,1-1.1,2-1.1c0.8,0,2.1,0.5,2.1,2.5V95h-1.1v-3.4
		c0-1-0.4-1.8-1.4-1.8c-0.7,0-1.3,0.5-1.5,1.1c0,0.1-0.1,0.3-0.1,0.5V95h-1.1V90.6z"/>
	<path fill="#4D4D4D" d="M72.9,86.2H74V95h-1.1V86.2z"/>
	<path fill="#4D4D4D" d="M77,87.3c0,0.4-0.3,0.7-0.7,0.7c-0.4,0-0.7-0.3-0.7-0.7c0-0.4,0.3-0.7,0.7-0.7C76.8,86.7,77,86.9,77,87.3z
		 M75.8,95v-6h1.1v6H75.8z"/>
	<path fill="#4D4D4D" d="M78.7,90.6c0-0.6,0-1.1,0-1.6h1l0.1,1h0c0.3-0.6,1-1.1,2-1.1c0.8,0,2.1,0.5,2.1,2.5V95h-1.1v-3.4
		c0-1-0.4-1.8-1.4-1.8c-0.7,0-1.3,0.5-1.5,1.1c0,0.1-0.1,0.3-0.1,0.5V95h-1.1V90.6z"/>
	<path fill="#4D4D4D" d="M86.2,92.2c0,1.5,1,2.1,2,2.1c0.8,0,1.2-0.1,1.7-0.3l0.2,0.8c-0.4,0.2-1,0.4-2,0.4c-1.8,0-2.9-1.2-2.9-3
		c0-1.8,1.1-3.2,2.8-3.2c1.9,0,2.5,1.7,2.5,2.8c0,0.2,0,0.4,0,0.5H86.2z M89.3,91.4c0-0.7-0.3-1.8-1.5-1.8c-1.1,0-1.6,1-1.7,1.8
		H89.3z"/>
	<path fill="#4D4D4D" d="M94.4,86.8c0.5-0.1,1.2-0.2,2.1-0.2c1.1,0,1.8,0.2,2.3,0.7c0.5,0.4,0.7,1,0.7,1.7c0,0.8-0.2,1.3-0.6,1.8
		c-0.6,0.6-1.5,0.9-2.5,0.9c-0.3,0-0.6,0-0.9-0.1V95h-1.1V86.8z M95.4,90.8c0.2,0.1,0.5,0.1,0.9,0.1c1.3,0,2.1-0.6,2.1-1.8
		c0-1.1-0.8-1.6-2-1.6c-0.5,0-0.8,0-1,0.1V90.8z"/>
	<path fill="#4D4D4D" d="M100.7,90.9c0-0.7,0-1.3,0-1.9h0.9l0,1.2h0c0.3-0.8,0.9-1.3,1.7-1.3c0.1,0,0.2,0,0.3,0v1
		c-0.1,0-0.2,0-0.4,0c-0.8,0-1.3,0.6-1.5,1.4c0,0.1,0,0.3,0,0.5V95h-1.1V90.9z"/>
	<path fill="#4D4D4D" d="M110,91.9c0,2.2-1.5,3.2-3,3.2c-1.6,0-2.9-1.2-2.9-3.1c0-2,1.3-3.2,3-3.2C108.8,88.9,110,90.1,110,91.9z
		 M105.3,92c0,1.3,0.8,2.3,1.8,2.3c1,0,1.8-1,1.8-2.3c0-1-0.5-2.3-1.8-2.3S105.3,90.9,105.3,92z"/>
	<path fill="#4D4D4D" d="M111.4,91c0-0.8,0-1.4,0-1.9h1l0,1h0c0.4-0.7,1.1-1.2,2.1-1.2c1.4,0,2.5,1.2,2.5,3c0,2.1-1.3,3.2-2.7,3.2
		c-0.8,0-1.5-0.3-1.8-0.9h0v3.2h-1.1V91z M112.4,92.5c0,0.2,0,0.3,0,0.4c0.2,0.8,0.8,1.3,1.6,1.3c1.1,0,1.8-0.9,1.8-2.3
		c0-1.2-0.6-2.2-1.8-2.2c-0.7,0-1.4,0.5-1.6,1.3c0,0.1-0.1,0.3-0.1,0.4V92.5z"/>
	<path fill="#4D4D4D" d="M119,92.2c0,1.5,1,2.1,2,2.1c0.8,0,1.2-0.1,1.7-0.3l0.2,0.8c-0.4,0.2-1,0.4-2,0.4c-1.8,0-2.9-1.2-2.9-3
		c0-1.8,1.1-3.2,2.8-3.2c1.9,0,2.5,1.7,2.5,2.8c0,0.2,0,0.4,0,0.5H119z M122.2,91.4c0-0.7-0.3-1.8-1.5-1.8c-1.1,0-1.6,1-1.7,1.8
		H122.2z"/>
	<path fill="#4D4D4D" d="M124.5,90.9c0-0.7,0-1.3,0-1.9h0.9l0,1.2h0c0.3-0.8,0.9-1.3,1.7-1.3c0.1,0,0.2,0,0.3,0v1
		c-0.1,0-0.2,0-0.4,0c-0.8,0-1.3,0.6-1.5,1.4c0,0.1,0,0.3,0,0.5V95h-1.1V90.9z"/>
	<path fill="#4D4D4D" d="M130.2,87.3V89h1.6v0.8h-1.6V93c0,0.7,0.2,1.2,0.8,1.2c0.3,0,0.5,0,0.6-0.1l0,0.8c-0.2,0.1-0.5,0.1-1,0.1
		c-0.5,0-0.9-0.2-1.2-0.5c-0.3-0.3-0.4-0.8-0.4-1.6v-3.3h-0.9V89h0.9v-1.4L130.2,87.3z"/>
	<path fill="#4D4D4D" d="M133.5,89l1.3,3.5c0.1,0.4,0.3,0.9,0.4,1.2h0c0.1-0.4,0.2-0.8,0.4-1.2l1.2-3.5h1.1l-1.6,4.3
		c-0.8,2-1.3,3.1-2,3.7c-0.5,0.5-1.1,0.7-1.3,0.7l-0.3-0.9c0.3-0.1,0.6-0.3,0.9-0.5c0.3-0.2,0.7-0.7,0.9-1.2c0-0.1,0.1-0.2,0.1-0.3
		c0-0.1,0-0.1-0.1-0.3l-2.2-5.5H133.5z"/>
	<path fill="#4D4D4D" d="M142.9,92.4L142,95h-1.1l2.8-8.3h1.3l2.8,8.3h-1.1l-0.9-2.6H142.9z M145.6,91.5l-0.8-2.4
		c-0.2-0.5-0.3-1-0.4-1.5h0c-0.1,0.5-0.3,1-0.4,1.5l-0.8,2.4H145.6z"/>
	<path fill="#4D4D4D" d="M153.9,93.3c0,0.6,0,1.2,0,1.6h-1l-0.1-1h0c-0.3,0.5-0.9,1.1-2,1.1c-0.9,0-2.1-0.5-2.1-2.6V89h1.1v3.3
		c0,1.1,0.3,1.9,1.3,1.9c0.7,0,1.2-0.5,1.4-1c0.1-0.2,0.1-0.4,0.1-0.6V89h1.1V93.3z"/>
	<path fill="#4D4D4D" d="M159.9,94.7c-0.3,0.1-0.9,0.3-1.7,0.3c-1.8,0-3-1.2-3-3c0-1.8,1.3-3.2,3.2-3.2c0.6,0,1.2,0.2,1.5,0.3
		l-0.2,0.8c-0.3-0.1-0.7-0.3-1.3-0.3c-1.4,0-2.1,1-2.1,2.3c0,1.4,0.9,2.2,2.1,2.2c0.6,0,1-0.2,1.3-0.3L159.9,94.7z"/>
	<path fill="#4D4D4D" d="M162.6,87.3V89h1.6v0.8h-1.6V93c0,0.7,0.2,1.2,0.8,1.2c0.3,0,0.5,0,0.6-0.1l0,0.8c-0.2,0.1-0.5,0.1-1,0.1
		c-0.5,0-0.9-0.2-1.2-0.5c-0.3-0.3-0.4-0.8-0.4-1.6v-3.3h-0.9V89h0.9v-1.4L162.6,87.3z"/>
	<path fill="#4D4D4D" d="M166.6,87.3c0,0.4-0.3,0.7-0.7,0.7c-0.4,0-0.7-0.3-0.7-0.7c0-0.4,0.3-0.7,0.7-0.7
		C166.4,86.7,166.6,86.9,166.6,87.3z M165.4,95v-6h1.1v6H165.4z"/>
	<path fill="#4D4D4D" d="M173.7,91.9c0,2.2-1.5,3.2-3,3.2c-1.6,0-2.9-1.2-2.9-3.1c0-2,1.3-3.2,3-3.2
		C172.5,88.9,173.7,90.1,173.7,91.9z M169,92c0,1.3,0.8,2.3,1.8,2.3c1,0,1.8-1,1.8-2.3c0-1-0.5-2.3-1.8-2.3S169,90.9,169,92z"/>
	<path fill="#4D4D4D" d="M175.1,90.6c0-0.6,0-1.1,0-1.6h1l0.1,1h0c0.3-0.6,1-1.1,2-1.1c0.8,0,2.1,0.5,2.1,2.5V95h-1.1v-3.4
		c0-1-0.4-1.8-1.4-1.8c-0.7,0-1.3,0.5-1.5,1.1c0,0.1-0.1,0.3-0.1,0.5V95h-1.1V90.6z"/>
	<path fill="#4D4D4D" d="M185.5,95l-2.1-8.3h1.1l1,4.2c0.2,1,0.5,2.1,0.6,2.9h0c0.1-0.8,0.4-1.8,0.7-2.9l1.1-4.2h1.1l1,4.2
		c0.2,1,0.5,2,0.6,2.8h0c0.2-0.9,0.4-1.8,0.7-2.9l1.1-4.2h1.1l-2.4,8.3H190l-1-4.3c-0.3-1.1-0.4-1.9-0.5-2.7h0
		c-0.1,0.8-0.3,1.6-0.6,2.7l-1.2,4.3H185.5z"/>
	<path fill="#4D4D4D" d="M194.7,92.2c0,1.5,1,2.1,2,2.1c0.8,0,1.2-0.1,1.7-0.3l0.2,0.8c-0.4,0.2-1,0.4-2,0.4c-1.8,0-2.9-1.2-2.9-3
		c0-1.8,1.1-3.2,2.8-3.2c1.9,0,2.5,1.7,2.5,2.8c0,0.2,0,0.4,0,0.5H194.7z M197.9,91.4c0-0.7-0.3-1.8-1.5-1.8c-1.1,0-1.6,1-1.7,1.8
		H197.9z"/>
	<path fill="#4D4D4D" d="M200.2,95c0-0.4,0-1,0-1.5v-7.2h1.1V90h0c0.4-0.7,1.1-1.1,2-1.1c1.5,0,2.5,1.2,2.5,3c0,2.1-1.3,3.2-2.7,3.2
		c-0.9,0-1.6-0.3-2-1.1h0l0,1H200.2z M201.3,92.6c0,0.1,0,0.3,0,0.4c0.2,0.8,0.8,1.3,1.6,1.3c1.1,0,1.8-0.9,1.8-2.3
		c0-1.2-0.6-2.2-1.8-2.2c-0.7,0-1.4,0.5-1.7,1.3c0,0.1-0.1,0.3-0.1,0.4V92.6z"/>
	<path fill="#4D4D4D" d="M207.1,93.9c0.3,0.2,0.9,0.4,1.4,0.4c0.8,0,1.2-0.4,1.2-0.9c0-0.5-0.3-0.8-1.1-1.1c-1.1-0.4-1.6-1-1.6-1.7
		c0-1,0.8-1.7,2.1-1.7c0.6,0,1.1,0.2,1.5,0.4l-0.3,0.8c-0.2-0.1-0.7-0.3-1.2-0.3c-0.6,0-1,0.4-1,0.8c0,0.5,0.4,0.7,1.1,1
		c1,0.4,1.6,0.9,1.6,1.8c0,1-0.8,1.8-2.2,1.8c-0.7,0-1.3-0.2-1.7-0.4L207.1,93.9z"/>
	<path fill="#4D4D4D" d="M213.4,87.3c0,0.4-0.3,0.7-0.7,0.7c-0.4,0-0.7-0.3-0.7-0.7c0-0.4,0.3-0.7,0.7-0.7
		C213.1,86.7,213.4,86.9,213.4,87.3z M212.2,95v-6h1.1v6H212.2z"/>
	<path fill="#4D4D4D" d="M216.3,87.3V89h1.6v0.8h-1.6V93c0,0.7,0.2,1.2,0.8,1.2c0.3,0,0.5,0,0.6-0.1l0,0.8c-0.2,0.1-0.5,0.1-1,0.1
		c-0.5,0-0.9-0.2-1.2-0.5c-0.3-0.3-0.4-0.8-0.4-1.6v-3.3h-0.9V89h0.9v-1.4L216.3,87.3z"/>
	<path fill="#4D4D4D" d="M219.6,92.2c0,1.5,1,2.1,2,2.1c0.8,0,1.2-0.1,1.7-0.3l0.2,0.8c-0.4,0.2-1,0.4-2,0.4c-1.8,0-2.9-1.2-2.9-3
		c0-1.8,1.1-3.2,2.8-3.2c1.9,0,2.5,1.7,2.5,2.8c0,0.2,0,0.4,0,0.5H219.6z M222.8,91.4c0-0.7-0.3-1.8-1.5-1.8c-1.1,0-1.6,1-1.7,1.8
		H222.8z"/>
</g>
</svg>
